<?xml version="1.0" encoding="utf-8"?>
<!-- Generator: Adobe Illustrator 26.1.0, SVG Export Plug-In . SVG Version: 6.00 Build 0)  -->
<svg version="1.1" id="Capa_1" xmlns="http://www.w3.org/2000/svg" xmlns:xlink="http://www.w3.org/1999/xlink" x="0px" y="0px"
	 viewBox="0 0 13674.43 6682.21" style="enable-background:new 0 0 13674.43 6682.21;" xml:space="preserve">
<style type="text/css">
	.st0{fill:#CED4DA;}
</style>
<g>
	<g>
		<path class="st0" d="M5849.75,5362.77c-1208.58,0-2417.16,1.38-3625.72-2.37c-107.43-0.33-163,23.96-205.87,131.72
			c-180.02,452.44-644.7,694.37-1123.35,598.29c-464.56-93.26-790.88-502.29-787.31-986.9c3.43-466.7,345.66-874.19,804.97-958.5
			c478.61-87.84,945.96,160.94,1110.43,619.75c54.36,151.63,124.82,177.5,268.75,177.23c2384.48-4.62,4768.98-3.48,7153.47-3.28
			c243.41,0.02,204.34-11.38,206.15,197.79c1.96,226.25,0.93,226.27-231.78,226.27C8229.57,5362.78,7039.66,5362.77,5849.75,5362.77
			z M1098.17,4553.59c-316.52,0.52-564.97,252.68-563.46,571.9c1.47,312.51,262.95,569.94,574.97,566.09
			c304.18-3.76,557.4-263.56,556.11-570.57C1664.46,4801.05,1416.38,4553.06,1098.17,4553.59z"/>
		<path class="st0" d="M7653.96,1941.01c326.55,1.36,633.26,53.72,846.12,338.26c33.22,44.41,67.68,92.48,83.54,144.36
			c33.82,110.67,128.73,234.78,43.8,337.26c-76.79,92.66-455.96-6.48-511.72-131.91c-117.23-263.72-563.13-297.58-756.41-206.68
			c-111.89,52.62-179.9,140.08-183.39,259.11c-3.45,117.63,86.47,183.85,184.63,222.69c242.71,96.04,499.86,144.3,750.52,214.11
			c300.14,83.59,567.95,205.16,626.11,554.78c79.38,477.13-162.18,840.78-635.08,941.16c-331.04,70.27-666.86,85.99-987.15-56.21
			c-275.24-122.21-416.96-345.05-455.09-640.05c-8.27-63.96,3.3-95,75.7-96.56c207.73-4.47,417.63-24.32,521.08,221.5
			c16.21,38.52,61.7,72.55,101.75,91.91c216.2,104.5,440.19,104.7,665.09,31.42c117.66-38.34,187.54-127.59,198.21-247.24
			c10.46-117.36-75.15-183.49-166.96-236.82c-192.41-111.76-410.07-146.92-620.8-203.06c-94.18-25.09-188.82-48.72-282.13-76.74
			c-332.41-99.83-499.4-309.5-508.63-635.55c-10.26-362.53,159.95-625.87,475.48-744.19
			C7291.96,1957.57,7470.98,1939.82,7653.96,1941.01z"/>
		<path class="st0" d="M3340.82,2025.42c256.78-0.03,513.62,3.11,770.3-1.87c81.29-1.58,101.04,25.08,101.84,103.08
			c2.61,256.41-92,357.2-350.85,357.62c-303.46,0.5-607,3.65-910.34-2.27c-94.86-1.85-122.68,28.96-116.92,119.93
			c7.07,111.57,6.48,224.18,0.41,335.86c-4.71,86.55,27.16,112.45,112.21,110.94c261.36-4.65,522.95,2.24,784.26-3.82
			c99.43-2.31,140.15,17.86,135.31,129.33c-9.45,217.84-97.93,313.94-316.37,313.96c-191.42,0.02-383.31,8.19-574.08-2.98
			c-122.57-7.18-151.58,36.63-142.38,149.48c9.83,120.56,2.52,242.52,2.39,363.87c-0.22,206.69-0.32,205.85,199.86,205.39
			c294.13-0.69,588.45,6.54,882.32-2.03c234.36-6.83,320.25,178.13,290.81,408.74c-5.67,44.39-38.76,46.72-72.61,46.12
			c-485.06-8.7-971.18,26.32-1455.03-17.37c-262.79-23.73-374.8-160.09-379.4-428.33c-6.47-377.93-4.56-756.01-4.83-1134.03
			c-0.17-238.01,0.19-476.06,4.02-714.03c4-248.41,94.63-336.96,338.74-337.46C2873.95,2025.08,3107.38,2025.45,3340.82,2025.42z"/>
		<path class="st0" d="M12830.75,4707.83c-79.34,0-160.36,10.54-237.71-1.86c-307.94-49.35-534.97,69.31-752.81,285.73
			c-323.55,321.44-680.29,609.34-1018.64,916.2c-74.82,67.86-150.35,93.94-250.38,93.79c-1600.72-2.41-3201.44-1.07-4802.15-2.36
			c-92.41-0.07-160.67,7.78-219.28,102.4c-91.4,147.54-274.63,190.26-433.99,130.69c-165.94-62.03-253.85-198.08-246.63-381.71
			c6.29-159.99,113.36-298.16,264.12-340.81c172.25-48.73,349.92,10.14,436.44,165.29c46.22,82.89,97.43,103.33,186.93,103.17
			c1582.05-2.89,3164.1-2.77,4746.15-0.44c85.02,0.12,147.22-22.83,210.52-79.88c422.5-380.77,849.29-756.79,1272.57-1136.69
			c59.46-53.37,120.34-77.5,200.66-76.89c405.99,3.1,812.01,1.37,1218.02,1.94c74.59,0.1,158.56-10.39,162.29,101.98
			c3.87,116.73-78.34,120.03-162.08,120.02c-191.34-0.02-382.67-0.01-574.01-0.01
			C12830.75,4708.21,12830.75,4708.02,12830.75,4707.83z M5095.56,5866.3c0.66,102.29,60.27,151.86,147.89,156.01
			c92.96,4.41,151.72-55.74,152.31-146.44c0.57-88.27-48.21-151.02-146.7-151.06C5154.01,5724.78,5105.5,5778.05,5095.56,5866.3z"/>
		<path class="st0" d="M5122.95,3583.49c-0.04-321.61-3.1-643.27,1.92-964.81c1.41-90.05-21.61-120.78-115.64-116.9
			c-186.18,7.68-372.97-0.79-559.37,3.61c-79.01,1.86-102.71-24.16-104.58-103.95c-5.99-255.24,101.16-373.8,352.19-373.92
			c466.25-0.23,932.49-0.26,1398.74,0.01c260.88,0.15,364,116.11,356.96,382c-2.3,86.66-37.96,97.18-109.68,95.7
			c-181.76-3.76-363.91,4.68-545.38-3.55c-100.63-4.56-123.23,29.66-122.6,125.43c4.14,629.22-0.54,1258.49,4.75,1887.69
			c0.96,114.05-26.31,161.02-146.02,146.45c-132.36-16.12-304.82,57.11-389.02-28.63c-77.35-78.76-19.31-248.44-21.28-377.94
			C5120.52,4030.99,5122.99,3807.22,5122.95,3583.49z"/>
		<path class="st0" d="M10590.74,3607.31c0.18,480.67,1.83,961.34-0.48,1441.99c-1.26,261.25-271.17,422.93-509.62,309.16
			c-57.92-27.64-34.82-81.49-35.09-123.5c-2.12-321.98-0.84-643.98-0.73-965.98c0.2-620.67-0.61-1241.33,0.89-1861.99
			c0.73-300.57,204.12-454.05,493.65-379.91c79.66,20.4,49.65,80.31,49.84,124.24
			C10591.37,2636.64,10590.56,3121.98,10590.74,3607.31z"/>
		<path class="st0" d="M9654.01,3347.3c0.06,395.96-2.85,791.95,2.16,1187.85c1.21,95.83-22.2,134.97-123.45,127.06
			c-106.53-8.31-214.56-7.37-321.26-0.36c-89.94,5.9-108.96-31.89-108.68-113.71c2.58-736.01,0.75-1472.02,2.51-2208.03
			c0.48-202.1,110.27-309.18,310.05-312.64c41.92-0.73,84.6,4.86,125.66-1.14c97.49-14.25,115.4,32.22,114.59,119.15
			C9651.86,2546.05,9653.95,2946.69,9654.01,3347.3z"/>
		<path class="st0" d="M9884.25,1768.73c-176.77,0-353.78-5.68-530.21,1.98c-119.01,5.17-106.22-66.71-109.56-143.74
			c-3.63-83.58,11.77-126.68,112.34-125.07c358.09,5.72,716.37,5.51,1074.46,0.08c98.83-1.5,105.03,46.6,99.31,120.28
			c-5.42,69.81,24.62,153.18-102.19,147.66c-181.07-7.88-362.74-2-544.15-2C9884.25,1768.19,9884.25,1768.46,9884.25,1768.73z"/>
		<path class="st0" d="M8997.9,1120.67c1.9-155.33,121.34-271.34,276.2-268.25c153.14,3.05,273.19,123.2,274.33,274.55
			c1.16,153.55-130.01,280.15-287.22,277.21C9109.92,1401.36,8995.97,1278.66,8997.9,1120.67z"/>
		<path class="st0" d="M10784.26,1131.91c-3.23,157.15-132.98,278.79-290.53,272.39c-147.37-5.99-266.45-137.21-261.47-288.13
			c5.03-152.63,128.63-266.95,284.04-262.73C10670.18,857.61,10787.39,979.41,10784.26,1131.91z"/>
		<path class="st0" d="M10167.9,1129.53c-0.22,146.14-127.86,273.28-276.7,275.62c-148.75,2.34-275.08-121.31-278.13-272.21
			c-3.21-158.99,121.2-282.09,281.99-279.02C10047.31,856.83,10168.13,978.88,10167.9,1129.53z"/>
		<path class="st0" d="M10068.09,600.9c-5.86,107.29-64.33,170.58-174.33,169.83c-108.61-0.75-174.8-64.04-175.36-173
			c-0.55-109.96,68.55-173.17,175.1-173.9C10001.23,423.1,10063.38,485.69,10068.09,600.9z"/>
		<path class="st0" d="M1098.17,4553.59c318.2-0.52,566.28,247.46,567.62,567.42c1.28,307.01-251.93,566.81-556.11,570.57
			c-312.02,3.85-573.5-253.58-574.97-566.09C533.21,4806.27,781.65,4554.11,1098.17,4553.59z"/>
		<path class="st0" d="M5095.56,5866.3c9.94-88.26,58.46-141.52,153.5-141.49c98.49,0.03,147.27,62.79,146.7,151.06
			c-0.59,90.7-59.35,150.86-152.31,146.44C5155.83,6018.16,5096.22,5968.6,5095.56,5866.3z"/>
	</g>
</g>
</svg>
