<?xml version="1.0" encoding="utf-8"?>
<!-- Generator: Adobe Illustrator 26.1.0, SVG Export Plug-In . SVG Version: 6.00 Build 0)  -->
<svg version="1.1" id="Capa_1" xmlns="http://www.w3.org/2000/svg" xmlns:xlink="http://www.w3.org/1999/xlink" x="0px" y="0px"
	 viewBox="0 0 1140 292.6" style="enable-background:new 0 0 1140 292.6;" xml:space="preserve">
<style type="text/css">
	.st0{fill:#CED4DA;}
</style>
<g>
	<path class="st0" d="M250.63,0.09c0.89,1.78,2.52,0.83,3.77,0.88c8.84,0.38,17.69,0.69,26.54,0.85c2.2,0.04,3.95,0.73,5.61,2.03
		c14.54,11.4,27.8,24.32,36.51,40.51c6.19,11.51,4.64,24.67-1.92,36.16c-5.94,10.4-15.07,17.01-27.67,16.97
		c-13.58-0.04-26.36-9.85-30.48-22.96c-0.51-1.61-0.9-3.25-1.38-5.04c-6.18,19.09-17.24,28.34-33.37,28.06
		c-15.19-0.26-25.9-9.85-31.2-27.92c-5.47,17.3-16.32,27.01-31.14,27.87c-16.53,0.97-26.89-6.86-36.24-27.67
		c-1.37,7.55-4.5,13.82-9.83,18.92c-5.33,5.1-11.7,8.03-19,8.69c-15.83,1.45-25.89-6.25-35.63-27.24
		C62.01,83.72,54,92.63,40.84,96.48C20.26,102.49,2.23,82.85,0.87,65.74C-0.2,52.22,3.6,41.26,12.65,31.33
		c8.51-9.34,16.68-18.92,26.75-26.7c2.34-1.81,4.69-2.89,7.72-2.93c6.95-0.09,13.9-0.37,20.85-0.72c1.41-0.07,3.17,0.93,4.25-0.89
		c5.06,0,10.12,0,15.19,0c6.33,1.58,12.65,1.57,18.98,0c3.48,0,6.96,0,10.44,0c6.64,1.54,13.29,1.53,19.93,0c14.55,0,29.1,0,43.66,0
		c0.77,1.02,1.9,0.95,3,0.95c11.61,0,23.21,0,34.82,0c1.1,0,2.22,0.08,2.99-0.95C231.02,0.09,240.82,0.09,250.63,0.09z"/>
	<path class="st0" d="M1139.91,188.42c-2.06,3.77-1.8,8.08-2.68,12.11c-8.49,38.68-39.52,60.05-79.4,57.55
		c-39.22-2.46-66.33-30.41-68.74-72.31c-0.89-15.6,0.85-30.84,7.57-45.17c8.62-18.37,22.3-30.99,42.22-36.38
		c20.28-5.48,40.43-5.55,59.67,3.46c23.37,10.94,35,30.71,39.54,55.33c0.46,2.48-0.03,5.26,1.81,7.43
		C1139.91,176.43,1139.91,182.43,1139.91,188.42z M1039.76,179.39c0.14,11.51,1.89,20.83,5.3,27.56c3.9,7.7,10.08,11.8,18.88,11.86
		c8.92,0.05,15.86-3.51,19.31-11.76c7.28-17.39,7.74-35.18,0.99-52.84c-3.47-9.09-10.42-14.06-20.42-13.95
		c-9.86,0.1-16.03,5.52-19.82,14.2C1040.54,162.44,1039.88,170.86,1039.76,179.39z"/>
	<path class="st0" d="M221.21,0.09c-0.77,1.03-1.9,0.95-2.99,0.95c-11.61,0-23.21,0-34.82,0c-1.1,0-2.22,0.07-3-0.95
		C194,0.09,207.61,0.09,221.21,0.09z"/>
	<path class="st0" d="M136.74,0.09c-6.64,1.53-13.29,1.54-19.93,0C123.46,0.09,130.1,0.09,136.74,0.09z"/>
	<path class="st0" d="M106.37,0.09c-6.33,1.57-12.65,1.58-18.98,0C93.72,0.09,100.05,0.09,106.37,0.09z"/>
	<path class="st0" d="M64.55,89.94c16.14,24.52,49.67,23.78,65.12-0.26c8.1,11.84,19,18.39,33.54,18.45
		c14.64,0.06,25.8-6.08,34.05-18.44c7.86,11.44,18.31,18.28,32.4,18.36c14.09,0.08,24.82-6.21,32.65-18.02
		c2.31,2.54,4.42,5.18,6.85,7.48c7.42,7.01,16.24,10.84,26.55,10.48c2.63-0.09,3.38,0.41,3.61,3.08c0.99,11.32,1.74,22.64,1.81,34
		c0.2,30.9,1.22,61.82-1.16,92.68c-0.93,12.11-2.55,24.11-6.86,35.58c-2.3,6.12-5.89,9.77-13.11,10.91
		c-39.04,6.14-78.36,7.12-117.73,7.25c-32.42,0.11-64.81-1.1-97.06-4.74c-7.05-0.8-14.01-2.38-21.06-3.18
		c-4.18-0.47-6.41-2.77-8.2-6.16c-4.34-8.23-6.07-17.18-7.35-26.22c-2.45-17.21-3.01-34.53-2.92-51.89
		c0.15-29.01-0.66-58.03,1.86-86.99c0.28-3.23,0.76-4.47,4.52-4.36C44.61,108.27,54.63,102.52,64.55,89.94z M260.1,259.54
		c3.12-0.18,6.59,0.03,10.03-0.78c8.31-1.94,12.23-6.3,12.74-14.69c0.23-3.78,0.16-7.55-0.54-11.31
		c-3.7-19.67-10.33-38.57-15.3-57.91c-2.96-11.51-6.94-22.53-13.59-32.48c-14.65-21.93-39.95-24.97-59.3-7.01
		c-1.6,1.48-3.02,1.76-5.05,1.55c-16.25-1.68-32.54-1.74-48.78-0.2c-4.12,0.39-6.77-0.51-9.49-3.36
		c-10.82-11.33-38.29-14.26-52.04,2.34c-6.12,7.39-11.07,15.4-14.1,24.39C57.99,179.92,53,200.24,47.45,220.4
		c-2.34,8.51-4.34,17.09-2.92,26.08c1,6.33,4.54,10.56,10.66,11.84c28.97,6.06,54.67-8.56,57.49-36.54
		c0.21-2.04,0.36-3.03,2.99-2.57c5.28,0.92,10.65,1.37,16,1.87c24.65,2.27,49.27,1.95,73.84-1.02c2.8-0.34,5.9-1.42,8.29-0.57
		c1.13,0.41,0.79,4.6,1.31,7.03C219.57,247.11,236.83,259.85,260.1,259.54z"/>
	<path class="st0" d="M753.49,112.03c9.81-5.87,19.5-10.06,30.43-11.03c8.76-0.78,17.39-0.35,25.85,1.88
		c20.34,5.37,30.01,20.01,33.98,39.45c1.3,6.36,1.48,12.84,1.5,19.29c0.06,29.64-0.04,59.28,0.11,88.92
		c0.02,3.66-0.83,4.82-4.67,4.76c-14.23-0.24-28.46-0.23-42.68-0.01c-3.66,0.06-4.41-1.06-4.39-4.53
		c0.15-27.75,0.1-55.49,0.06-83.24c0-3.93,0.06-7.85-0.85-11.75c-2.89-12.36-11.85-17.67-24.18-14.19
		c-4.94,1.39-9.11,4.2-13.33,6.98c-2.21,1.45-1.81,3.44-1.81,5.42c-0.01,32-0.11,64.01,0.11,96.01c0.03,4.53-1.39,5.38-5.54,5.31
		c-14.07-0.24-28.14-0.19-42.21-0.02c-3.15,0.04-3.97-0.87-3.97-3.96c0.08-65.9,0.08-131.8,0-197.7c0-2.94,0.81-3.71,3.72-3.68
		c14.7,0.15,29.41,0.17,44.11-0.01c3.31-0.04,3.84,1.14,3.82,4.06c-0.12,17.66-0.06,35.31-0.06,52.97
		C753.49,108.46,753.49,109.96,753.49,112.03z"/>
	<path class="st0" d="M456.97,185.21c0-14.5-0.17-26.81,0.1-39.11c0.08-3.7-1.09-4.53-4.5-4.3c-4.25,0.29-8.54-0.08-12.8,0.12
		c-2.56,0.12-3.19-0.78-3.16-3.21c0.12-10.57,0.15-21.14-0.02-31.7c-0.04-2.7,1.03-3.07,3.31-2.99c4.27,0.15,8.56-0.24,12.8,0.13
		c3.77,0.33,4.42-1.16,4.35-4.53c-0.22-9.46,0-18.93-0.13-28.39c-0.04-2.8,0.31-4.17,3.75-4.12c14.71,0.22,29.42,0.16,44.13,0.03
		c2.77-0.03,3.39,0.85,3.35,3.46c-0.15,9.93,0.05,19.87-0.12,29.81c-0.05,2.9,0.75,3.79,3.71,3.73c8.69-0.19,17.4,0.07,26.09-0.14
		c2.98-0.07,3.69,0.81,3.64,3.69c-0.18,10.09-0.18,20.19,0,30.28c0.06,3.07-0.74,4.08-3.94,4c-8.54-0.22-17.08,0.01-25.62-0.13
		c-2.66-0.04-3.93,0.31-3.9,3.51c0.16,20.03-0.03,40.06,0.12,60.09c0.09,11.57,6.02,15.71,17.4,12.67c3.4-0.91,6.68-2.19,9.39-4.34
		c3.03-2.39,3.95-1.27,4.95,1.78c2.9,8.81,5.91,17.59,9.14,26.28c0.9,2.43,0.54,3.66-1.65,4.94c-20.41,12.01-42.31,14.78-64.81,8.43
		c-16.39-4.63-23.33-17.8-25.01-33.89C456.22,208.58,457.26,195.78,456.97,185.21z"/>
	<path class="st0" d="M668.31,202.14c5.29,12.35,10.28,24.21,15.47,35.98c1.26,2.85-1,3.32-2.35,4.22
		c-11.14,7.43-23.12,12.82-36.55,14.64c-14.72,1.99-29.31,1.89-43.7-2.22c-23.65-6.75-39.12-21.94-45.51-45.57
		c-5.38-19.86-5.47-40.05,0.77-59.72c8.41-26.55,26.82-42.2,54.41-47.2c21.93-3.98,42.1-1.04,59.68,13.68
		c7.3,6.11,11.88,14.22,16.94,22.01c1.37,2.12-0.04,2.7-1.39,3.57c-10.09,6.46-20.21,12.9-30.24,19.46
		c-1.99,1.3-3.02,1.47-4.17-0.98c-1.88-3.99-4.35-7.66-7.28-11.01c-11-12.58-29.35-10.31-36.84,4.71c-4.8,9.62-5.12,20.04-4.42,30.5
		c0.36,5.34,1.19,10.62,3.23,15.66c4.11,10.13,11.57,15.75,22.45,17.1c12.47,1.55,23.42-1.85,33.12-9.64
		C663.89,205.76,665.83,204.16,668.31,202.14z"/>
	<path class="st0" d="M425.32,179.94c0,23.64-0.09,47.27,0.1,70.9c0.03,3.64-0.99,4.37-4.44,4.32c-14.22-0.21-28.44-0.18-42.66-0.02
		c-3.24,0.04-4.26-0.75-4.25-4.14c0.11-47.74,0.12-95.49-0.01-143.23c-0.01-3.34,1.17-3.8,4.06-3.77
		c14.38,0.13,28.76,0.17,43.14-0.03c3.3-0.04,4.17,0.76,4.15,4.1C425.25,132.04,425.32,155.99,425.32,179.94z"/>
	<path class="st0" d="M973.79,179.4c0,23.81-0.09,47.61,0.1,71.42c0.03,3.64-0.98,4.4-4.46,4.35c-14.23-0.21-28.46-0.19-42.68-0.01
		c-3.2,0.04-4.25-0.61-4.24-4.02c0.12-47.77,0.11-95.54,0-143.31c-0.01-3.16,0.9-3.86,3.93-3.83c14.54,0.16,29.09,0.18,43.63-0.01
		c3.28-0.04,3.8,1.09,3.78,4C973.74,131.79,973.79,155.6,973.79,179.4z"/>
	<path class="st0" d="M884.57,207.28c15.45-0.03,25.98,10.37,26.01,25.67c0.03,15.08-10.34,25.29-25.75,25.33
		c-15.79,0.05-26.53-10.08-26.63-25.1C858.09,217.92,868.89,207.31,884.57,207.28z"/>
	<path class="st0" d="M948.26,92.01c-19.32-0.3-30.3-13.3-25.68-30.73c1.88-7.09,6.18-12.33,13.1-15.09
		c8.25-3.3,16.68-3.35,24.94-0.26c9.88,3.7,15.62,13.96,14.44,25.05c-1.14,10.7-8.07,18.09-18.85,19.99
		C953.58,91.45,950.91,91.68,948.26,92.01z"/>
	<path class="st0" d="M400.11,91.77c-14.29,0-23.86-6.46-26.16-17.66c-3.87-18.88,10.14-32.84,30.26-30.14
		c16.2,2.17,25.24,14.48,22.04,30C423.96,85.08,414.13,91.77,400.11,91.77z"/>
	<path class="st0" d="M129.72,190.84c3.56-5.57,7.9-10.08,12.26-14.5c6.31-6.4,12.85-12.59,19.32-18.85c1.06-1.02,1.97-2.5,3.8-0.7
		c10.81,10.6,22.22,20.63,31.41,32.77c0.26,0.34,0.38,0.77,0.86,1.79c-5.39-0.24-10.36-0.3-15.31-0.75
		c-2.79-0.25-3.61,0.63-3.46,3.32c0.2,3.46-0.12,6.94,0.1,10.4c0.16,2.59-0.84,3.19-3.24,3.15c-7.9-0.12-15.81-0.18-23.71,0.02
		c-3.08,0.08-3.82-1.07-3.57-3.85c0.21-2.35,0.04-4.73,0.04-7.09c0-6.1,0-6.01-5.9-5.75C138.3,190.98,134.27,190.84,129.72,190.84z"
		/>
</g>
</svg>
