<?xml version="1.0" encoding="UTF-8"?><svg id="a" xmlns="http://www.w3.org/2000/svg" viewBox="0 0 910.2 186.88"><defs><style>.b,.c,.d{fill:#c92c63;}.b,.e{stroke-width:4px;}.b,.e,.d{stroke:#000;stroke-miterlimit:10;}.f,.e{fill:#030101;}.d{stroke-width:5px;}</style></defs><g><path class="d" d="M33.26,93.56l-13.18,13.18h8.79v17.58H2.5v-30.76L55.23,40.82v30.76l30.76-30.76V124.32h-21.97v-30.76l-8.79,8.79v21.97h-21.97v-30.76Z"/><path class="d" d="M119.11,62.8v61.52l-21.97,21.97V62.8h21.97Z"/><path class="d" d="M152.23,111.14v13.18l-21.97,21.97V62.8h52.73v43.95h-8.79l17.58,17.58h-26.37l-13.18-13.18Zm8.79-21.97v-8.79h-8.79v8.79h8.79Z"/><path class="d" d="M194.14,93.56l52.73-52.73V124.32h-21.97v-30.76l-13.18,13.18h8.79v17.58h-26.37v-30.76Z"/><path class="d" d="M279.99,62.8v61.52l-21.97,21.97V62.8h21.97Z"/><path class="d" d="M634.61,84.77v39.55h-52.73v-52.73l8.79-8.79h43.95v17.58h-30.76v26.37h8.79v-8.79l21.97-13.18Z"/><path class="d" d="M645.75,93.56l52.73-52.73V124.32h-21.97v-30.76l-13.18,13.18h8.79v17.58h-26.37v-30.76Z"/><path class="d" d="M740.39,93.56l-13.18,13.18h8.79v17.58h-26.37v-30.76l52.73-52.73v30.76l30.76-30.76V124.32h-21.97v-30.76l-8.79,8.79v21.97h-21.97v-30.76Z"/><path class="d" d="M848.22,62.8v17.58h-21.97v4.39h39.55l-17.58,17.58h-21.97v4.39h21.97v17.58h-26.37l-17.58-17.58V62.8h43.95Z"/><path class="d" d="M859.36,62.8h48.34v17.58h-26.37v4.39h26.37v39.55h-48.34v-17.58h26.37v-4.39h-26.37V62.8Z"/></g><g><path class="b" d="M551.43,120.15v7.89c-.27,.07-.25,.29-.28,.5-.82,4.94-2.84,9.36-5.78,13.38-3.09,4.22-6.97,7.74-10.59,11.46-7.33,7.53-14.81,14.92-22.39,22.2-5.54,5.32-12.11,8.54-19.78,9.17-10,.82-18.58-2.58-25.76-9.5-4.03-3.89-8-7.84-11.89-11.87-6.9-7.13-14.37-13.7-20.72-21.36-.47-.56-.65-.24-.93,.12-.9,1.18-1.82,2.34-2.87,3.39-2.96,2.97-5.91,5.96-8.88,8.93-7.04,7.04-14,14.17-21.17,21.08-8,7.71-17.61,10.71-28.6,8.74-6.53-1.16-12.08-4.34-16.81-8.93-9.76-9.49-19.41-19.09-28.86-28.89-4.5-4.67-7.87-9.93-9.36-16.31-.17-.71-.01-1.52-.62-2.11v-8.15c.41-.16,.34-.58,.39-.87,.6-4,2.15-7.71,3.48-11.48,5.51-15.68,11.49-31.18,17.27-46.76,.14-.37,.12-.86,.62-1.03,.24,0,.37,.14,.5,.33,3.39,4.79,6.79,9.56,10.15,14.37,.58,.83,.83,.91,1.34-.05,4-7.59,8.05-15.16,12.06-22.75,5.07-9.61,10.11-19.23,15.17-28.85,.67-1.28,.82-1.29,1.61-.12,2.38,3.54,4.75,7.1,7.13,10.63,4.91,7.27,9.84,14.53,14.73,21.81,4.68,6.97,9.31,13.99,14,20.95,6,8.9,11.87,17.89,17.78,26.85,1.52,2.31,1.18,2.43,2.82-.04,5.22-7.84,10.31-15.77,15.54-23.6,7.04-10.55,14.17-21.04,21.26-31.56,1.85-2.75,3.69-5.51,5.55-8.26,3.8-5.64,7.6-11.27,11.39-16.91,.63-.93,.87-.93,1.43,.12,1.99,3.73,3.99,7.46,5.96,11.21,7.08,13.44,14.15,26.89,21.22,40.34,.62,1.18,.83,1.21,1.6,.13,3.13-4.4,6.24-8.82,9.36-13.22,.36-.5,.58-1.14,1.25-1.37,.47,.36,.53,.94,.72,1.44,5.25,14.13,10.53,28.24,15.72,42.39,1.67,4.55,3.46,9.06,4.59,13.79,.22,.92,.14,1.9,.65,2.75Zm-108.55,3.26c-.15,3.79,1.51,7.1,4.16,9.93,3.39,3.62,6.82,7.19,10.32,10.69,7.1,7.1,14.27,14.13,21.39,21.22,1.95,1.94,4.14,3.46,6.77,4.32,4,1.3,7.77,.69,11.36-1.34,3.07-1.73,5.3-4.44,7.77-6.85,4.41-4.31,8.74-8.7,13.09-13.07,4.86-4.88,9.72-9.77,14.57-14.66,3.48-3.52,4.59-7.86,4-12.61-.42-3.43-2.08-6.2-4.68-8.71-2.78-2.68-5.45-5.52-8.15-8.3-5.72-5.88-11.53-11.68-17.36-17.45-2.64-2.62-5.09-5.44-8.13-7.64-5.49-3.98-12.61-3.7-17.69,.79-3.96,3.5-7.64,7.3-11.41,11-7.07,6.94-13.96,14.05-20.88,21.14-3.1,3.17-5.28,6.72-5.14,11.55Zm-63.75-47.28c-4.32,.02-7.7,1.17-10.12,3.23-4.31,3.69-8.12,7.89-12.15,11.87-6.78,6.69-13.5,13.44-20.23,20.17-2.16,2.16-4.24,4.4-4.96,7.5-1.47,6.25,.14,11.52,4.77,16.06,8.26,8.09,16.33,16.36,24.56,24.49,3.09,3.05,5.87,6.48,9.66,8.74,5.24,3.12,11.09,2.62,15.73-.87,3.35-2.52,6.11-5.71,9.11-8.63,6.62-6.44,13.16-12.96,19.53-19.65,2.55-2.68,5.53-5,7.49-8.2,3.05-4.97,3.1-10.05,.19-15.14-1.32-2.31-3.28-4.07-5.1-5.94-9.85-10.12-19.75-20.2-30.04-29.88-2.66-2.51-5.89-3.67-8.43-3.77Z"/><path class="e" d="M337.9,59.76c-.26-.47,.11-.81,.29-1.16,9.33-18.46,18.68-36.92,28-55.39,.43-.85,.87-1.22,1.89-1.21,9.93,.05,19.86,.03,29.79,0,.78,0,1.2,.27,1.62,.9,8.65,12.92,17.31,25.82,25.98,38.72,3.11,4.63,6.23,9.26,9.34,13.88,.46-.08,.56-.44,.73-.69,11.65-17.18,23.29-34.35,34.9-51.55,.45-.66,.93-.84,1.66-.85,9.5-.07,19.01-.15,28.51-.27,.81-.01,1.1,.35,1.4,.97,5.68,11.5,11.37,22.99,17.06,34.48,3.44,6.96,6.87,13.93,10.3,20.9,.2,.41,.51,.79,.4,1.3-.67,.22-.89,.86-1.25,1.37-3.13,4.4-6.23,8.82-9.36,13.22-.77,1.08-.98,1.05-1.6-.13-7.08-13.45-14.14-26.89-21.22-40.34-1.97-3.74-3.97-7.48-5.96-11.21-.56-1.05-.8-1.05-1.43-.12-3.79,5.64-7.6,11.27-11.39,16.91-1.85,2.75-3.69,5.51-5.55,8.26-7.09,10.52-14.22,21.01-21.26,31.56-5.23,7.83-10.32,15.76-15.54,23.6-1.64,2.47-1.3,2.34-2.82,.04-5.91-8.96-11.78-17.95-17.78-26.85-4.7-6.96-9.32-13.98-14-20.95-4.89-7.28-9.82-14.54-14.73-21.81-2.39-3.54-4.75-7.09-7.13-10.63-.79-1.17-.94-1.16-1.61,.12-5.06,9.62-10.1,19.24-15.17,28.85-4.01,7.59-8.06,15.16-12.06,22.75-.5,.96-.76,.88-1.34,.05-3.36-4.81-6.76-9.58-10.15-14.37-.13-.18-.26-.33-.5-.33Z"/><path class="f" d="M442.88,123.41c-.13-4.83,2.05-8.38,5.14-11.55,6.92-7.09,13.81-14.2,20.88-21.14,3.77-3.7,7.45-7.5,11.41-11,5.08-4.49,12.2-4.77,17.69-.79,3.04,2.2,5.49,5.03,8.13,7.64,5.83,5.78,11.64,11.57,17.36,17.45,2.7,2.78,5.38,5.62,8.15,8.3,2.6,2.51,4.25,5.28,4.68,8.71,.59,4.75-.52,9.1-4,12.61-4.85,4.9-9.71,9.78-14.57,14.66-4.35,4.37-8.68,8.76-13.09,13.07-2.47,2.41-4.7,5.12-7.77,6.85-3.59,2.02-7.36,2.64-11.36,1.34-2.63-.86-4.82-2.38-6.77-4.32-7.12-7.08-14.29-14.11-21.39-21.22-3.5-3.5-6.94-7.08-10.32-10.69-2.65-2.83-4.31-6.14-4.16-9.93Zm68.42-9.64c-5.17-.11-9.63,4.19-9.74,9.38-.1,4.79,4.13,9.17,8.87,9.38,5.62,.25,9.98-3.73,10.15-9.09,.16-5.11-4.16-9.56-9.28-9.67Zm-30.94-11.9c-.27,5.23,4.43,9.36,9.32,9.35,5.31-.01,9.64-4.24,9.61-9.47-.04-5.48-5.08-9.46-9.92-9.32-4.9,.14-9.02,4.34-9.01,9.44Zm-11.96,30.55c5.29,.22,9.56-4.2,9.63-9.09,.07-5.03-4.62-9.62-9.61-9.57-5.26,.05-9.44,4.3-9.42,9.6,.02,4.9,4.07,9.26,9.4,9.06Zm21.46,2.69c-5.23-.02-9.47,4.16-9.5,9.38-.03,5.22,3.96,9.26,9.19,9.3,5.44,.04,9.71-3.94,9.75-9.09,.04-5.02-4.44-9.57-9.44-9.59Z"/><path class="f" d="M379.13,76.13c2.54,.1,5.77,1.26,8.43,3.77,10.29,9.68,20.19,19.76,30.04,29.88,1.82,1.87,3.78,3.63,5.1,5.94,2.9,5.09,2.86,10.17-.19,15.14-1.96,3.19-4.94,5.51-7.49,8.2-6.36,6.7-12.91,13.22-19.53,19.65-3,2.91-5.76,6.1-9.11,8.63-4.63,3.49-10.48,3.99-15.73,.87-3.8-2.26-6.57-5.69-9.66-8.74-8.22-8.13-16.3-16.4-24.56-24.49-4.63-4.54-6.24-9.81-4.77-16.06,.73-3.1,2.8-5.34,4.96-7.5,6.74-6.73,13.46-13.48,20.23-20.17,4.03-3.98,7.84-8.18,12.15-11.87,2.41-2.07,5.8-3.21,10.12-3.23Zm-31.99,47.24c-.1,.95,.46,1.84,1.27,2.57,2.58,2.31,5.81,3.2,9.03,4.15,3.31,.98,6.73,1.29,10.12,1.84,.87,.14,1.19,.47,1.28,1.34,.36,3.41,.84,6.81,1.8,10.12,.89,3.06,1.91,6.06,3.98,8.57,1.97,2.38,4.64,2.39,6.56-.02,1.5-1.88,2.43-4.06,3.16-6.33,1.25-3.89,1.91-7.9,2.35-11.95,.11-1,.33-1.55,1.59-1.72,4.57-.62,9.16-1.22,13.51-2.9,1.86-.72,3.68-1.52,5.18-2.88,1.92-1.74,2.06-3.48,.39-5.42-1.16-1.34-2.72-2.14-4.31-2.83-4.79-2.07-9.88-2.93-15.01-3.56-.94-.12-1.3-.42-1.41-1.36-.29-2.53-.64-5.04-1.23-7.52-.86-3.68-1.81-7.35-4.06-10.46-2.23-3.08-4.35-3.53-6.84-.25-1.27,1.68-2.1,3.6-2.74,5.56-1.38,4.19-2.36,8.48-2.71,12.9-.05,.6-.21,1.02-.94,1.12-2.9,.38-5.79,.8-8.63,1.49-3.64,.88-7.2,1.98-10.3,4.15-1.07,.75-2.02,1.7-2.05,3.41Z"/><path class="c" d="M511.29,113.77c5.12,.11,9.44,4.56,9.28,9.67-.16,5.36-4.53,9.34-10.15,9.09-4.74-.21-8.97-4.59-8.87-9.38,.1-5.19,4.57-9.49,9.74-9.38Z"/><path class="c" d="M480.35,101.86c0-5.1,4.12-9.31,9.01-9.44,4.83-.13,9.88,3.84,9.92,9.32,.03,5.23-4.29,9.45-9.61,9.47-4.89,.01-9.6-4.11-9.32-9.35Z"/><path class="c" d="M468.39,132.42c-5.33,.2-9.39-4.16-9.4-9.06-.02-5.29,4.16-9.54,9.42-9.6,4.98-.05,9.67,4.54,9.61,9.57-.07,4.89-4.33,9.31-9.63,9.09Z"/><path class="c" d="M489.85,135.11c5,.02,9.47,4.57,9.44,9.59-.04,5.15-4.31,9.13-9.75,9.09-5.23-.04-9.22-4.08-9.19-9.3,.03-5.22,4.26-9.4,9.5-9.38Z"/><path class="c" d="M347.14,123.37c.02-1.7,.98-2.66,2.05-3.41,3.11-2.16,6.67-3.26,10.3-4.15,2.84-.69,5.74-1.1,8.63-1.49,.72-.1,.89-.51,.94-1.12,.35-4.42,1.33-8.71,2.71-12.9,.64-1.96,1.47-3.88,2.74-5.56,2.49-3.29,4.61-2.83,6.84,.25,2.25,3.11,3.2,6.78,4.06,10.46,.58,2.48,.94,5,1.23,7.52,.11,.95,.47,1.25,1.41,1.36,5.13,.63,10.22,1.49,15.01,3.56,1.59,.69,3.15,1.48,4.31,2.83,1.67,1.94,1.53,3.68-.39,5.42-1.5,1.36-3.32,2.16-5.18,2.88-4.35,1.68-8.94,2.28-13.51,2.9-1.26,.17-1.48,.72-1.59,1.72-.44,4.05-1.11,8.06-2.35,11.95-.73,2.27-1.66,4.45-3.16,6.33-1.92,2.41-4.59,2.4-6.56,.02-2.08-2.51-3.1-5.51-3.98-8.57-.96-3.31-1.44-6.7-1.8-10.12-.09-.87-.41-1.2-1.28-1.34-3.38-.55-6.81-.86-10.12-1.84-3.21-.95-6.45-1.84-9.03-4.15-.82-.73-1.37-1.62-1.27-2.57Z"/></g></svg>