<?xml version="1.0" encoding="utf-8"?>
<!-- Generator: Adobe Illustrator 26.1.0, SVG Export Plug-In . SVG Version: 6.00 Build 0)  -->
<svg version="1.1" id="Capa_1" xmlns="http://www.w3.org/2000/svg" xmlns:xlink="http://www.w3.org/1999/xlink" x="0px" y="0px"
	 viewBox="0 0 3454.28 3455.39" style="enable-background:new 0 0 3454.28 3455.39;" xml:space="preserve">
<style type="text/css">
	.st0{fill:#CED4DA;}
</style>
<path class="st0" d="M-0.27,1824.48c0-66.79,0-133.58,0-200.36c11.29-8.42,11.74-8.4,12.44-22.06
	c4.33-83.91,16.19-166.82,35.65-248.44C177.96,807.99,496.66,412.64,999.77,166.76c177.68-86.84,366.77-136.4,564.07-153.79
	c6.9-0.61,21.44,4.98,18.07-12.48c18.42,0,36.85,0,55.27,0c-2.21,6.97,2.81,6.44,6.91,6.43c4.09,0,9.12,0.54,6.91-6.43
	c50.67,0,101.33,0,152,0c-2.21,6.97,2.81,6.43,6.91,6.43c4.09,0,9.12,0.54,6.91-6.43c18.42,0,36.85,0,55.27,0
	c-3.47,17.53,11.18,11.93,18,12.44c50.47,3.8,100.43,10.85,149.96,21.05c601.65,123.82,1025.04,469.81,1274.19,1028.86
	c75.65,169.75,115.45,350.06,127.81,536.01c0.55,8.28-9.26,25.6,12.23,25.28c0,66.79,0,133.58,0,200.36
	c-20.19,2.43-11.86,19.01-12.46,28.79c-4.7,77.02-15.82,153.16-32.27,228.36c-83.54,382.02-273.7,701.1-571.2,954.62
	c-228.17,194.44-490.02,321.06-785.4,376.49c8.9-112.27,19.33-224.44,25.85-336.85c2.16-37.3,12.86-62.75,44.06-86.03
	c141.87-105.82,281.47-214.69,422.26-321.97c25.65-19.54,31.55-37.11,14.09-68.62c-66.05-119.18-129.54-239.83-191.42-361.24
	c-15.22-29.86-32.49-44.99-66-39.49c-18.72,3.07-28.89-1.66-30.09-24.71c-1.66-31.93-8.95-63.56-13.85-95.32
	c-41.11-266.46-82.17-532.94-123.46-799.37c-3.44-22.19-8.3-47.16-38.8-40.77c-27.15,5.69-24.08,28.31-20.62,50.18
	c22.43,141.64,44.33,283.37,66.25,425.09c26.83,173.48,54.37,346.85,79.87,520.52c10.99,74.88,27.19,149.06,31.56,224.95
	c1.07,18.53-2.36,26.58-22.8,28.12c-80.23,6.06-160.22,15.4-240.5,20.4c-39.9,2.48-68.53,13.74-87.04,52.72
	c-39.72,83.64-106.47,135.52-197.03,157.52c-66.99,16.27-132.26,5.28-197.74-7.87c-67.35-13.52-140.35-18.57-197.32-55.48
	c-118.39-76.7-229.83-164.09-344.64-246.37c-15.25-10.93-18.42-24.02-19.17-41.08c-2.5-56.31-5.72-112.61-9.75-168.84
	c-9.78-136.47-15.59-273.2-31.42-409.26c-13.47-115.78-5.04-232.31-7.23-348.49c-0.46-24.17-8.51-54.07,2.64-71
	c12.41-18.85,45.52-12.59,69.77-16.35c234.7-36.39,469.39-72.88,704.2-108.57c22.2-3.37,32.84-13.12,33.54-35.17
	c2.16-67.87,4.07-135.76,7.19-203.6c0.95-20.54-5.61-33.98-22.99-45.73c-48.5-32.81-100.44-62.51-142.44-102.46
	c-64.67-61.5-131.64-64.87-212.54-39.38c-83.63,26.36-171.02,40.78-259.45,61.04c3.02-6.25,3.98-9.61,5.99-12.14
	c7.87-9.9,15.81-19.78,24.19-29.25c65.31-73.85,131.14-146.85,166.62-241.86c11.42-30.59,35.21-56.38,49.08-86.33
	c6.11-13.2,6.89-25.72,23.88-31.46c149.89-50.69,303.12-82.93,461.94-81.14c56.27,0.63,113.07,1.58,171.57,14.27
	c-10.14,13.22-17.49,23.44-25.48,33.14c-102.41,124.27-205.01,248.37-307.21,372.81c-9.74,11.86-23.77,23.06-14.97,42.37
	c9.15,20.09,26.73,18.21,44.04,18.7c97.81,2.75,195.63,5.54,293.43,8.8c36.79,1.22,81.66-8.5,108.05,9.03
	c27.25,18.1,36.71,63.17,53.58,96.63c19.01,37.71,28.35,40.64,66.41,18.94c56.75-32.35,113.83-64.18,169.81-97.82
	c17.16-10.31,22.57-6.35,28.53,10.69c15.47,44.24,31.26,88.45,49.49,131.59c7.85,18.57,3.15,26.24-13.1,34.46
	c-63.31,32.04-125.46,66.46-189.47,97c-23.23,11.08-30.06,25.28-26.98,48.33c4.87,36.42,9.57,72.86,13.98,109.33
	c2.46,20.35,10.8,38.19,33.26,35.64c23.38-2.65,30.26-20.21,26.02-43.57c-4.61-25.4-6.58-51.29-9.93-78.89
	c77.47,18.37,150.96,35.84,224.46,53.22c69.06,16.33,138,33.18,207.3,48.46c20.78,4.58,48.44,11.24,51.22-21.67
	c7.35-87.21,24.69-175.52-30.73-256.44c-21.16-30.89-35.03-66.96-50.75-101.34c-14.46-31.61-26.99-64.07-67.45-74.06
	c28.11-9.7,54.78-15.58,81.04-22.94c29.33-8.22,36.94-24.59,23.23-51.87c-13.88-27.63-28.86-54.63-48.35-79.15
	c-81.86-103.01-180.73-186.18-293.71-252.75c-111.07-65.45-227.59-122.14-354.58-144.11c-181.67-31.44-363.87-23.91-543.64,22.85
	c-76.49,19.89-151.76,43.12-225.26,71.85c-36.91,14.43-41.72,35.38-15.07,63.29c9.84,10.3,2.37,14.86-0.43,22.95
	c-23.35,67.55-64.4,115.71-137.61,131.25c-14.3,3.04-27.51,11.12-41.27,16.76c-107.89,44.25-197.92,111.5-262.96,209.08
	c-110.08,165.15-142.77,352.55-153.86,545.83c-1.63,28.43-5.48,57.47,30.86,79c-12.41,1.07-16.45,1.62-20.51,1.75
	c-121.53,3.89-84.47-11.57-154.8,82.62c-6.18,8.28-11.98,16.85-17.88,25.35c-5.97,8.6-10.53,17.51-10.16,28.61
	c2.76,81.41-0.01,163.16,23.2,242.88c6.22,21.36,16.85,33.07,36.59,40.69c35.21,13.6,71.63,25.55,104.33,43.92
	c71.17,39.98,143.11,49.68,219.3,17.62c2.63-1.11,5.82-0.87,11.19-1.59c8.74,132.06,18.01,262.82,25.48,393.69
	c1.29,22.67,9.07,37.93,25.34,53.16c200.9,187.96,401.18,376.59,601.59,565.07c7.37,6.94,15.97,12.51,13.84,25.6
	c-3.68,22.61-5.87,45.47-8.31,68.27c-11.45,107.06-33.4,212.87-38.26,320.72c-31.68-5.1-63.76-8.45-94.99-15.54
	C790.39,3275.53,368.98,2926.06,129.37,2360.44c-68.44-161.57-105.02-331.67-117.2-506.91C11.48,1843.62,19.78,1827.14-0.27,1824.48
	z M2774.91,1693.65c-12.81-23.46-11.85-46.81-18.59-67.84c-7.24-22.6-1.88-51.38-21.25-67.48
	c-57.28-47.63-113.71-96.61-177.4-135.97c-17.65-10.91-32.69-4.8-40.81,10.75c-7.93,15.18-4.59,30.65,12.83,41.04
	c44.53,26.57,81.48,63.47,123.94,92.77c26.18,18.07,40.61,40.26,46.1,71.86c12.22,70.38,36.95,139.42,6.32,211.73
	c-7.95,18.77-12.25,28.09-34.84,22.48c-38.83-9.65-78.21-19.14-117.91-22.78c-51.73-4.74-86.7-27.77-107.28-75.35
	c-6.73-15.56-17.32-29.72-27.62-43.4c-10.46-13.88-10.08-25.62-0.49-40.06c20.27-30.51,39.3-61.86,58.23-93.24
	c10.07-16.68,10.54-33.31-7.63-45.03c-19.27-12.42-32.27-1.48-42.78,14.17c-6.38,9.51-12.06,19.49-18.14,29.2
	c-17.61,28.11-35.26,56.2-53.78,85.71c-11.4-12.5-10.85-22.02-11.62-31.03c-1.92-22.46-10.98-38.93-36.39-34.6
	c-23.34,3.98-25.58,20.95-22.07,41.86c6.84,40.68,9.85,82.06,17.87,122.47c8.02,40.37,3.88,83.36,21.84,121.27
	c22.52,47.54,48.86,93.26,72.09,140.48c7.88,16.02,19.19,25.14,35.38,29.62c34.13,9.45,68.32,18.7,102.52,27.94
	c21.62,5.84,39.32,2.08,55.85-15.48c35.46-37.68,72.82-73.57,109.6-109.99c7.94-7.86,14.33-17.9,27.76-18.36
	c34.35-1.17,56.2-20.35,72.57-49.24c10.7-18.87,24.44-36.05,37.15-53.75c54.79-76.33,82.65-156.43,36.08-247.63
	c-5.16-10.1-8.61-21.22-11.67-32.2c-4.79-17.18-11.52-31.74-33-23.08c-19.53,7.87-52.44-3.44-50.38,36.73
	C2779.11,1621.16,2782.79,1655.43,2774.91,1693.65z M1235.98,2123.56c58.07-7.3,116.15-14.61,174.22-21.88
	c3.42-0.43,6.97-0.07,10.32-0.77c21.93-4.61,131.3-131.27,134.04-155.58c6.69-59.34,12.88-118.73,19.76-178.05
	c1.59-13.68-3.26-24.25-10.85-34.96c-31.16-43.99-61.86-88.3-92.69-132.53c-11.9-17.08-28.29-26.92-46.74-14.5
	c-20.99,14.13-14.51,32.32-1.18,50.36c25.24,34.14,49.06,69.32,73.67,103.93c7.67,10.79,12.41,19.7,2.73,33.5
	c-22.37,31.86-42.41,65.37-63.46,98.16c-4.32,6.72-8.36,13.34-17.75,14.7c-88.8,12.93-174.78,38.17-268.3,18.3
	c-63.99-13.6-83.74-55.54-104.83-102.81c-8.26-18.52-2.23-38.12,4.26-58.78c30.51-97.12,88.95-167.38,183.73-206.5
	c9.44-3.9,18.37-9.61,26.6-15.73c15.07-11.21,26.34-16.89,42.79,1.82c15.52,17.65,40.59,10.43,46.38-10.49
	c8.11-29.29-18.04-41.94-32.36-59.85c-10.94-13.69-24.16-19.1-42.19-9.21c-122.43,67.17-248.83,130.09-281.97,285.43
	c-0.69,3.25-2.69,6.34-4.53,9.21c-10.8,16.77-10.75,35.23-6.12,53.25c15.06,58.59,31.48,116.82,46.49,175.42
	c3.09,12.05,9.26,20.36,18.51,27.75c47.58,38,95.33,75.79,142.24,114.61C1203.06,2120.22,1217.4,2126.83,1235.98,2123.56z"/>
<path class="st0" d="M1723.72,820.15c9.93,1.18,13.19,1.82,16.46,1.92c181.43,5.62,363.35,2.79,543.23,34.24
	c29.49,5.16,60.36,14.49,87.88-11.05c21.86-20.29,46.15-16.21,73.05-4.38c25.46,11.2,50.73,29.64,81.21,22.99
	c41.65-9.08,82.94-19.79,125.61-30.1c-3.41-8.09-4.61-12.63-7.05-16.37c-5.01-7.68-10.44-15.12-16.12-22.33
	c-145.85-185.24-339.77-296.92-560.81-367.68c-15.59-4.99-21.82-0.98-30.82,10.39c-44.92,56.76-90.61,112.91-136.49,168.9
	C1842.54,676.63,1784.75,746.23,1723.72,820.15z M1110.77,732.5c-6.87,0.85-12.73,0.4-17.64,2.35
	c-106.36,42.08-194.3,107.17-256.34,204.9c-74.08,116.7-105.1,247.01-126.1,381.62c-13.16,84.34-11.01,162.78,45.89,231.91
	c1.42,1.73,2.02,4.11,3.18,6.08c9.07,15.43,10.69,30.68-3.72,43.59c-13.38,11.98-28.93,9.32-40.93-0.88
	c-29.48-25.08-63.65-22.21-98.15-19.76c-7.78,0.55-18.26-1.76-20.44,8.36c-8.53,39.75-36.05,76.27-10.14,121.26
	c22.68,39.39,37.52,83.3,55.67,125.28c8.73,20.2,15.01,40.99-12.54,51.37c-25.37,9.56-34.48-9.7-42.54-28.06
	c-16.72-38.11-33.07-76.38-49.58-114.59c-5.09,20.4-7.74,39.91-4.57,58.42c7.8,45.53,11.5,94.61,73.01,104.28
	c12.44,1.96,23.83,4.98,36.69,2.86c40.73-6.71,81.62-12.48,122.46-18.49c11.39-1.68,27.64-0.79,31.81-10.13
	c16.97-38,49.56-70.74,44.58-116.66c-12.27-113.05-24.06-226.17-38.59-338.94c-7.45-57.82-8.81-111.28,23.02-165.14
	c34.78-58.85,59.31-123.68,89.89-185.11c57.89-116.31,100.12-241.85,195.63-336.33C1111.86,740.17,1111.23,738.47,1110.77,732.5z
	 M1007.06,1118.83c7.79,0.37,12.38,1.4,16.66,0.68c121.86-20.67,243.65-41.75,365.57-62.05c15.86-2.64,17.09-12.82,17.76-24.61
	c2.79-49.32,5.09-98.67,8.31-147.96c1.04-15.87-1-23.31-20.18-18.67c-103.3,24.98-206.81,49.07-310.37,72.96
	c-10.48,2.42-18.64,3.5-22.74,16.24C1044.7,1009.51,1025.95,1063.15,1007.06,1118.83z M1651.69,1164.03
	c0-21.22-3.49-38.04,0.58-52.76c21.98-79.42-11.39-128.93-80.45-164.73c-33.75-17.5-63.27-43.16-97.76-67.25
	c-3.35,57.9-6.53,109.39-9.14,160.92c-0.49,9.66-4,20.65,8.29,27.25C1531.34,1098.69,1589.3,1130.23,1651.69,1164.03z
	 M2455.15,909.97c22.5,60.42,42.55,114.53,62.97,168.5c1.51,4,5.06,8.92,8.76,10.16c54.56,18.32,109.31,36.08,170.02,55.94
	c-27.9-56.45-52.34-105.69-76.54-155.05c-4.06-8.29-7.11-17.06-16.66-20.83C2556.42,950,2509.14,931.31,2455.15,909.97z"/>
<path class="st0" d="M1541.33,3433.49c8.92-66.66,17.74-133.33,26.79-199.98c6.3-46.38,14.04-92.6,18.81-139.13
	c1.88-18.3,9.16-22.15,25.65-22.25c90.6-0.56,181.29-0.14,271.76-4.17c34.44-1.53,39.17,10.87,36,39.89
	c-10.83,99.1-20.09,198.38-30.32,297.55c-0.95,9.23-2.52,18.13,0.82,27.08c-39.63,15.54-81.58,5.36-121.98,11.42
	c-7.02,1.05-23.78-10.21-21.12,11.12c-13.82,0-27.64,0-41.45,0c4.04-18.92-11.28-10.84-17.65-11.19
	C1639.47,3441.15,1590.08,3442.06,1541.33,3433.49z"/>
<path class="st0" d="M1541.33,3433.49c48.75,8.57,98.14,7.66,147.3,10.34c6.37,0.35,21.68-7.74,17.65,11.19
	c-59.88,0-119.76,0-179.64,0C1521.15,3440.76,1539.16,3442.53,1541.33,3433.49z"/>
<path class="st0" d="M1747.73,3455.02c-2.66-21.34,14.1-10.07,21.12-11.12c40.4-6.06,82.36,4.12,121.98-11.42
	c-0.64,8.94,17.05,10.63,8.9,22.54C1849.06,3455.02,1798.4,3455.02,1747.73,3455.02z"/>
<path class="st0" d="M2761.48,1868.95c7.53-30.1,13.09-54.47,19.85-78.49c3.53-12.55,2.88-24.91,2.83-37.57
	c-0.03-8.38-14.54-17.44-2.46-23.8c11.47-6.04,17.68,6.68,24.14,14.46c18.56,22.38,26.95,43.98,1.82,68.68
	C2791.92,1827.71,2784.93,1851.01,2761.48,1868.95z"/>
</svg>
