<?xml version="1.0" encoding="utf-8"?>
<!-- Generator: Adobe Illustrator 26.1.0, SVG Export Plug-In . SVG Version: 6.00 Build 0)  -->
<svg version="1.1" id="Capa_1" xmlns="http://www.w3.org/2000/svg" xmlns:xlink="http://www.w3.org/1999/xlink" x="0px" y="0px"
	 viewBox="0 0 1154.48 724.46" style="enable-background:new 0 0 1154.48 724.46;" xml:space="preserve">
<style type="text/css">
	.st0{fill:#CED4DA;}
</style>
<g>
	<path class="st0" d="M577.09,467.25c18.13,10.01,30.25,24.46,39.36,41.85c17.91,34.22,32.98,69.79,49.76,104.55
		c0.14,0.29-0.06,0.73-0.14,1.55c-17.76,0-35.56,0.1-53.35-0.05c-6.92-0.06-15.3,2.69-20.35-1.14c-4.74-3.6-6.01-11.74-8.83-17.87
		c-11.45-24.9-21.32-50.55-34.99-74.4c-5.02-8.77-10.96-16.85-18.09-24.09c-8.99-9.13-20.27-12.72-32.57-13.17
		c-14.54-0.53-29.11-0.17-43.66-0.53c-4.26-0.11-4.06,2.04-4.05,5.01c0.06,40.17-0.03,80.35,0.14,120.52
		c0.02,4.43-0.9,5.9-5.63,5.84c-21.54-0.26-43.09-0.17-64.63-0.01c-3.71,0.03-5.27-0.45-5.27-4.86
		c0.15-108.87,0.12-217.75,0.09-326.62c0-3.1-0.28-5.37,4.35-5.32c47.74,0.53,95.51-0.74,143.23,0.97
		c37.23,1.33,68.33,16.2,89.13,47.75c19.2,29.13,24.19,61.02,10.33,94.01c-8.32,19.8-23.73,33.67-42.02,44.44
		C579.26,466.05,578.61,466.4,577.09,467.25z M450.18,383.87c0.01,0,0.02,0,0.02,0c0,12.02,0.15,24.04-0.09,36.06
		c-0.07,3.69,1.06,4.53,4.59,4.47c13.96-0.23,27.92-0.07,41.88-0.18c11.64-0.09,23.23-0.85,34.55-3.87
		c8.94-2.39,16.65-6.65,20.25-15.75c5.04-12.75,5.2-25.74,0.01-38.44c-5.62-13.74-18.08-17.76-31.11-20.23
		c-22.09-4.19-44.46-1.88-66.71-2.52c-3.7-0.11-3.42,1.97-3.41,4.4C450.2,359.83,450.18,371.85,450.18,383.87z"/>
	<path class="st0" d="M224.49,568.19c-19.13,31.45-46.92,50.35-82.82,55.14c-31,4.14-61.6,0.4-89.63-15.05
		c-26.81-14.77-40.48-39.04-47.17-67.9c-3.25-14-4.77-28.24-4.76-42.65C0.15,426.92,0.18,356.1,0,285.29
		c-0.01-5.02,1.04-6.4,6.23-6.31c21.15,0.34,42.3,0.24,63.45,0.06c4.07-0.04,5.59,0.56,5.58,5.27
		c-0.19,65.19-0.16,130.38-0.1,195.57c0.01,14.94,0.82,29.8,5.22,44.27c7.09,23.3,22.46,37.15,46.6,40.26
		c17.47,2.25,34.92,1.11,51.49-5.57c25.44-10.26,37.75-30.72,42.98-56.48c2.13-10.51,2.59-21.13,2.59-31.82
		c-0.03-61.89,0.03-123.78-0.11-185.67c-0.01-4.35,0.76-5.93,5.58-5.86c21.73,0.29,43.47,0.2,65.2,0.04
		c3.64-0.03,4.86,0.69,4.86,4.67c-0.12,109.04-0.12,218.07,0,327.11c0,3.94-1.11,4.82-4.84,4.79c-21.54-0.16-43.08-0.18-64.62,0.01
		c-3.99,0.04-4.82-1.27-4.75-5c0.24-12.8,0.14-25.61,0.1-38.41C225.44,570.98,226.22,569.52,224.49,568.19z"/>
	<path class="st0" d="M1154.31,384.72c-14.91-10.6-29.69-19.66-45.58-26.76c-24.73-11.06-50.39-17.22-77.74-15.77
		c-59.04,3.11-101.3,47.84-100.69,106.92c0.58,55.9,42.82,99.74,98.65,103.04c40,2.36,75.34-10.67,108.6-31.25
		c5.41-3.35,10.63-7,16.03-10.57c1.5,1.17,0.68,2.82,0.68,4.19c0.07,21.54-0.03,43.08,0.13,64.61c0.03,3.37-0.99,5.12-4.03,6.66
		c-42.69,21.7-87.71,32.68-135.74,28.87c-32.46-2.57-63.22-10.96-90.84-29.02c-30.4-19.88-50.96-47.21-60.89-82.07
		c-11.33-39.76-11.35-79.86,1.97-119.01c17.37-51.07,54.48-82.21,105.47-96.74c62.93-17.94,123.04-8.15,180.68,21.14
		c2.69,1.37,3.37,3.05,3.35,5.89C1154.26,337.76,1154.31,360.66,1154.31,384.72z"/>
	<path class="st0" d="M787.38,456.9c0,55.89,0.22,111.78-0.13,167.66c-0.11,16.64-1.48,33.35-6.3,49.45
		c-9.46,31.61-32.42,49.27-65.47,50.18c-14.73,0.41-29.48,0.52-44.21-0.91c-4.25-0.41-5.44-1.73-5.38-5.98
		c0.24-19.98,0.24-39.97,0.03-59.96c-0.04-4.17,0.98-5.14,5.12-4.63c7.54,0.92,15.12,0.24,22.5-1.65
		c10.94-2.81,17.03-10.07,18.24-21.31c0.92-8.5,1.15-17.03,1.15-25.57c0.01-106.34,0.06-212.69-0.1-319.03
		c-0.01-5.32,1.25-6.73,6.62-6.64c20.96,0.34,41.92,0.28,62.88,0.01c4.45-0.06,5.43,1.16,5.42,5.48
		c-0.15,57.63-0.1,115.27-0.1,172.9C787.56,456.9,787.47,456.9,787.38,456.9z"/>
	<path class="st0" d="M149.56,223.27c-33.36,0.01-66.71-0.09-100.06,0.12c-4.77,0.03-6.38-1.11-6.14-6.05
		c0.42-8.51,0.47-17.08-0.01-25.58c-0.29-5.2,1.27-6.44,6.39-6.42c64,0.18,127.99,0.12,191.99,0.13c14.18,0,14.18,0.04,14.18,14.09
		c0,6.2-0.26,12.42,0.09,18.61c0.23,4.14-1.14,5.2-5.2,5.19C217.05,223.19,183.3,223.26,149.56,223.27z"/>
	<path class="st0" d="M149.17,160.91c-24.48-0.24-43.36-19.71-43.17-44.54c0.18-23.76,20.39-43.23,44.48-42.83
		c23.94,0.39,43.23,20.34,42.99,44.44C193.22,141.94,173.4,161.15,149.17,160.91z"/>
	<path class="st0" d="M0.11,117.53C0.07,92.95,19.53,73.39,43.84,73.57c24.09,0.18,43.55,19.78,43.54,43.85
		c-0.01,24.05-19.55,43.49-43.72,43.5C19.25,160.93,0.15,141.9,0.11,117.53z"/>
	<path class="st0" d="M255.24,160.89c-24.13-0.13-43.34-19.63-43.27-43.92c0.07-23.92,19.84-43.44,43.96-43.4
		c23.96,0.03,43.66,19.82,43.61,43.82C299.49,141.75,279.86,161.03,255.24,160.89z"/>
	<path class="st0" d="M177.28,26.41c0.03,14.74-11.71,26.69-26.38,26.84c-14.75,0.15-27.22-12.14-27.2-26.8
		C123.72,11.86,135.35,0.03,149.69,0C165.81-0.03,177.24,10.91,177.28,26.41z"/>
</g>
</svg>
